<?xml version="1.0" standalone="no"?>
<!DOCTYPE svg PUBLIC "-//W3C//DTD SVG 20010904//EN"
 "http://www.w3.org/TR/2001/REC-SVG-20010904/DTD/svg10.dtd">
<svg version="1.0" xmlns="http://www.w3.org/2000/svg"
 width="2928.000000pt" height="1446.000000pt" viewBox="0 0 2928.000000 1446.000000"
 preserveAspectRatio="xMidYMid meet">

<g transform="translate(0.000000,1446.000000) scale(0.100000,-0.100000)"
fill="#ffffff" stroke="none">
<path d="M25139 13351 c-85 -24 -140 -47 -232 -97 -41 -23 -137 -122 -180
-187 -62 -93 -95 -184 -108 -294 -11 -97 -6 -272 11 -363 23 -126 95 -251 174
-305 37 -25 167 -85 184 -85 5 0 23 -7 38 -15 16 -8 42 -15 58 -15 16 0 63 -9
105 -19 42 -11 101 -26 131 -33 48 -11 55 -16 58 -40 3 -23 -8 -36 -75 -88
-43 -34 -109 -80 -148 -102 -181 -105 -244 -159 -289 -249 -45 -88 -31 -176
53 -350 58 -123 81 -138 145 -96 53 34 208 131 231 143 47 26 114 64 180 99
112 62 139 78 196 117 30 20 78 49 107 65 87 46 103 56 192 114 47 31 112 73
145 94 85 55 152 127 162 173 4 20 7 80 6 132 -2 89 -4 100 -40 169 -21 41
-45 78 -53 82 -51 27 -130 59 -146 59 -10 0 -47 9 -82 20 -55 17 -88 19 -270
17 -227 -2 -251 2 -377 66 -109 55 -135 92 -135 191 0 88 30 167 85 221 43 44
57 49 175 61 67 7 259 -20 303 -42 32 -17 111 -79 154 -121 38 -39 55 -27 72
55 38 180 -12 365 -131 481 -61 60 -173 118 -289 150 -115 32 -283 29 -410 -8z"/>
<path d="M26065 11146 c-72 -27 -110 -47 -302 -167 -81 -50 -159 -96 -173
-102 -14 -6 -47 -25 -75 -42 -64 -38 -82 -48 -213 -114 -59 -30 -119 -64 -134
-75 -45 -32 -78 -89 -88 -152 -10 -60 1 -354 21 -554 5 -52 14 -176 19 -275 6
-99 17 -250 25 -335 16 -166 40 -579 38 -645 -5 -129 -26 -404 -38 -485 -7
-52 -17 -156 -20 -230 -4 -74 -11 -162 -16 -195 -5 -33 -16 -154 -24 -270 -19
-282 -33 -473 -51 -700 -16 -196 -12 -480 7 -500 8 -8 94 17 324 96 143 49
156 57 260 162 55 56 109 114 120 129 11 15 41 54 68 88 26 33 47 62 47 65 0
2 15 28 33 57 38 59 149 289 191 393 27 66 37 105 121 475 13 58 26 134 30
170 3 36 13 94 20 130 8 36 17 101 20 145 4 44 13 114 21 156 14 72 19 157 44
719 6 136 6 307 0 465 -6 138 -15 401 -20 585 -6 184 -15 376 -20 425 -6 50
-14 178 -19 285 -11 229 -25 280 -86 305 -45 19 -58 18 -130 -9z"/>
<path d="M6036 11110 c-65 -25 -88 -49 -137 -139 -23 -42 -55 -101 -72 -131
-16 -30 -67 -118 -113 -196 -46 -77 -84 -148 -84 -156 0 -19 18 -35 86 -73 29
-16 102 -58 163 -93 61 -35 118 -62 127 -60 9 2 50 62 91 133 96 166 95 164
121 205 12 19 45 79 73 133 46 90 53 98 77 95 18 -2 34 -16 51 -45 14 -23 54
-87 89 -142 73 -115 75 -136 20 -166 -41 -21 -48 -39 -21 -49 9 -4 99 -12 200
-18 176 -11 185 -11 203 8 27 27 200 373 190 379 -5 3 -25 -6 -46 -20 -51 -35
-88 -33 -104 4 -6 16 -20 37 -31 47 -10 9 -19 21 -19 26 0 5 -11 24 -24 41
-13 18 -50 75 -81 127 -32 52 -62 98 -69 102 -6 4 -153 8 -326 7 -286 0 -320
-2 -364 -19z"/>
<path d="M12220 11035 c-47 -26 -420 -204 -535 -255 -197 -87 -270 -138 -320
-228 -40 -71 -59 -171 -52 -277 8 -115 34 -455 47 -605 27 -321 21 -1517 -10
-1865 -6 -60 -14 -191 -19 -290 -6 -99 -17 -241 -25 -315 -9 -74 -20 -189 -25
-255 -16 -199 -59 -596 -67 -627 -3 -9 9 -32 27 -52 36 -42 69 -46 114 -16 29
20 58 35 198 99 148 68 245 147 322 262 16 24 45 64 65 89 92 116 204 297 296
480 24 48 44 91 44 96 1 5 9 27 20 49 11 22 19 46 20 54 0 7 7 34 15 60 8 25
28 102 44 171 26 111 41 184 80 390 6 30 17 116 25 190 8 74 20 176 28 225 17
117 17 1172 0 1460 -7 110 -17 315 -22 455 -6 140 -17 291 -24 335 -8 44 -17
118 -21 165 -8 98 -24 142 -67 188 -28 28 -38 32 -82 32 -28 0 -62 -7 -76 -15z"/>
<path d="M14575 10669 c-44 -5 -91 -13 -105 -18 -14 -5 -43 -12 -65 -16 -43
-6 -91 -23 -171 -61 -28 -13 -54 -24 -58 -24 -13 0 -192 -110 -261 -160 -11
-8 -76 -71 -145 -140 -98 -97 -146 -156 -218 -263 -166 -249 -229 -410 -292
-747 -5 -25 -9 -133 -9 -240 -1 -162 3 -209 19 -275 11 -44 20 -89 20 -100 0
-76 143 -414 212 -502 119 -151 215 -249 304 -311 33 -23 79 -56 104 -73 149
-105 331 -176 565 -220 160 -30 419 -36 594 -15 142 18 417 67 511 91 30 7 77
17 105 21 27 4 64 13 82 20 23 10 39 11 58 4 24 -9 26 -14 20 -43 -7 -31 -36
-108 -59 -156 -26 -55 -238 -233 -381 -318 -118 -72 -352 -142 -540 -162 -55
-6 -140 -16 -190 -22 -99 -12 -424 -5 -515 11 -30 5 -101 14 -156 20 -194 18
-541 90 -769 160 -125 38 -287 7 -322 -61 -41 -79 7 -236 132 -432 158 -247
310 -404 547 -560 174 -116 308 -174 528 -231 159 -41 252 -49 519 -43 235 5
251 6 361 36 188 50 357 116 440 171 14 9 72 48 130 86 122 80 366 311 432
409 22 33 64 92 93 130 28 39 58 84 67 100 8 17 32 63 52 103 40 78 146 335
146 355 1 7 9 30 20 52 11 22 19 49 20 61 0 11 7 40 15 65 22 65 43 190 69
415 24 203 38 269 65 314 88 149 142 199 306 279 203 100 331 104 499 17 79
-41 134 -88 251 -216 127 -138 323 -372 393 -469 26 -35 67 -89 92 -120 25
-31 74 -99 110 -151 35 -52 78 -115 95 -140 140 -200 198 -286 213 -312 32
-57 37 -64 78 -114 36 -44 166 -221 204 -279 28 -42 134 -152 185 -193 81 -64
145 -87 246 -87 78 0 91 3 160 37 40 21 100 60 131 88 68 61 258 294 360 442
102 149 267 395 297 443 34 52 139 189 188 242 21 23 66 60 101 82 60 39 67
41 139 41 69 0 82 -4 155 -42 119 -62 160 -96 588 -507 368 -354 460 -434 617
-537 114 -77 255 -154 279 -154 8 0 42 -10 76 -22 56 -20 81 -23 218 -22 141
0 161 3 225 26 140 53 242 119 375 244 66 63 271 323 357 454 62 95 83 125
135 195 27 36 69 99 95 142 25 43 83 134 128 203 94 143 185 300 185 318 0 7
4 12 8 12 8 0 51 70 120 193 13 23 56 103 95 177 38 74 78 147 89 162 10 14
18 30 18 35 0 4 9 19 20 33 11 14 20 32 20 40 0 8 6 27 14 42 25 48 65 201 77
298 18 150 -2 296 -60 439 -47 116 -186 287 -325 400 -73 59 -446 311 -462
311 -5 1 -27 9 -49 20 -22 11 -44 19 -48 20 -11 0 -128 45 -184 71 -24 10 -45
19 -48 19 -3 0 -42 17 -88 38 -140 66 -157 72 -236 87 -91 18 -113 18 -166 4
-69 -19 -170 -142 -248 -304 -11 -22 -30 -56 -42 -75 -12 -19 -26 -46 -30 -60
-4 -13 -15 -36 -25 -50 -142 -210 -224 -362 -235 -440 -9 -59 14 -118 58 -147
38 -25 169 -83 189 -83 14 0 150 -44 183 -59 11 -6 43 -16 70 -24 63 -19 109
-35 161 -59 22 -10 46 -18 53 -18 20 0 188 -78 256 -120 82 -49 232 -169 284
-226 137 -149 198 -323 176 -499 -6 -50 -13 -64 -53 -107 -51 -55 -127 -97
-230 -130 -97 -31 -355 -31 -494 0 -108 24 -198 56 -273 96 -111 59 -238 149
-320 227 -38 37 -97 91 -130 120 -55 50 -160 150 -375 360 -47 45 -110 104
-140 129 -30 26 -71 63 -90 81 -195 191 -329 238 -495 176 -22 -8 -55 -23 -72
-34 -49 -29 -482 -459 -578 -574 -16 -19 -92 -103 -167 -186 -162 -178 -235
-242 -346 -305 -50 -28 -166 -27 -223 2 -67 34 -224 166 -292 244 -33 39 -90
105 -127 146 -37 41 -90 102 -117 136 -42 50 -183 207 -202 224 -3 3 -28 32
-56 65 -27 33 -55 65 -61 70 -7 6 -56 60 -110 120 -121 136 -201 221 -424 448
-189 193 -299 290 -370 326 -65 34 -167 61 -228 61 -112 0 -280 -61 -435 -158
-54 -34 -124 -81 -412 -276 -100 -68 -145 -95 -215 -132 -34 -18 -103 -28
-145 -20 -54 10 -116 80 -150 168 -30 78 -88 206 -137 303 -26 52 -81 136
-193 297 -53 78 -247 262 -335 320 -188 123 -341 190 -525 228 -116 24 -446
35 -580 19z m254 -1005 c134 -25 312 -84 425 -140 166 -84 348 -243 444 -390
98 -148 102 -226 15 -287 -24 -18 -56 -35 -71 -40 -101 -28 -341 -65 -607 -92
-49 -6 -142 -19 -336 -50 -123 -19 -232 -19 -356 0 -170 27 -272 67 -345 137
-112 107 -153 268 -109 427 25 91 60 148 137 226 75 77 158 123 329 183 120
42 325 54 474 26z"/>
<path d="M10003 10516 c-87 -33 -172 -103 -282 -236 -30 -36 -73 -85 -97 -110
-23 -25 -79 -90 -124 -145 -46 -55 -104 -122 -131 -150 -26 -27 -58 -63 -70
-80 -53 -68 -252 -291 -420 -469 -234 -247 -498 -483 -699 -624 -219 -153
-242 -167 -455 -283 -210 -113 -483 -221 -620 -245 -22 -4 -48 -11 -59 -16
-66 -35 -451 -87 -636 -87 -186 0 -516 45 -653 90 -31 11 -63 19 -70 19 -42 0
-354 114 -478 174 -124 60 -370 194 -429 234 -14 9 -44 28 -65 42 -43 27 -89
57 -205 138 -107 74 -356 278 -507 413 -218 197 -587 586 -823 868 -183 218
-220 261 -278 322 -42 45 -86 79 -134 104 -66 35 -77 38 -162 38 -92 1 -139
-9 -251 -56 -156 -65 -253 -172 -290 -322 -17 -65 -18 -187 -19 -1845 l-1
-1775 22 -70 c24 -76 68 -131 126 -158 56 -27 371 -47 902 -58 275 -6 526 -9
557 -6 65 6 140 48 179 100 23 30 24 39 23 187 -1 212 -24 285 -136 425 -26
34 -67 76 -90 95 -59 48 -392 382 -455 455 -134 157 -353 469 -353 504 0 5 -7
14 -15 21 -37 30 -142 271 -209 475 -14 44 -35 107 -45 140 -11 33 -25 86 -30
118 -6 32 -13 62 -15 66 -11 17 -46 270 -48 350 -3 74 -1 85 17 97 18 12 27
10 68 -9 54 -25 100 -83 205 -262 33 -55 87 -147 121 -205 81 -137 78 -131
138 -225 83 -125 257 -364 304 -416 13 -14 58 -65 99 -114 160 -188 462 -473
680 -641 118 -91 366 -260 436 -297 28 -15 76 -40 105 -56 212 -115 405 -196
629 -266 158 -48 190 -58 235 -70 225 -58 480 -91 785 -101 354 -12 829 41
1051 117 31 10 64 19 73 19 10 0 38 8 64 18 26 11 85 32 132 47 215 71 400
155 618 279 35 20 66 36 68 36 11 0 184 118 329 226 207 153 469 402 633 602
42 52 96 117 120 145 23 29 73 96 110 150 37 55 78 115 92 135 44 62 53 77
176 294 67 117 147 265 178 329 31 64 67 131 81 150 14 19 48 64 76 102 56 75
74 82 130 44 l34 -23 -1 -150 c-1 -200 -30 -361 -103 -580 -139 -415 -339
-776 -602 -1084 -105 -124 -325 -347 -416 -422 -39 -32 -82 -76 -95 -96 -56
-85 -135 -267 -159 -366 -5 -21 -16 -51 -24 -67 -9 -17 -15 -56 -15 -97 0 -83
17 -110 88 -143 56 -26 8 -25 792 -16 491 6 629 11 685 23 94 20 150 62 190
140 l30 59 0 1855 0 1855 -31 60 c-18 33 -49 77 -69 98 -75 77 -235 162 -361
192 -76 18 -78 18 -151 -9z"/>
<path d="M6975 10305 c-82 -47 -156 -89 -164 -93 -37 -21 -37 -40 1 -115 47
-90 105 -198 163 -302 25 -44 61 -110 80 -147 49 -94 48 -94 -174 -90 -97 2
-179 6 -183 9 -5 2 -8 35 -8 74 0 38 -4 69 -9 69 -9 0 -80 -90 -99 -127 -7
-12 -46 -65 -87 -118 -41 -52 -75 -102 -75 -109 0 -7 25 -53 55 -102 62 -101
68 -111 119 -211 21 -40 41 -73 45 -73 10 0 21 49 21 89 0 49 8 51 251 51
l226 0 75 123 c41 67 95 155 119 195 24 40 56 92 71 115 68 105 96 201 78 268
-5 19 -42 90 -81 159 -39 69 -105 191 -146 273 -69 133 -78 147 -102 147 -14
-1 -93 -39 -176 -85z"/>
<path d="M5480 10213 c-74 -2 -141 -5 -148 -8 -20 -7 2 -40 37 -55 16 -6 32
-18 35 -26 6 -17 -57 -148 -145 -301 -33 -56 -59 -110 -59 -119 0 -9 10 -33
23 -53 45 -72 104 -176 157 -276 83 -155 163 -260 223 -292 24 -12 85 -14 360
-13 182 0 335 4 339 8 4 4 9 101 11 215 3 190 2 209 -14 218 -10 5 -157 9
-337 9 -276 0 -321 2 -332 15 -15 18 -9 31 55 140 19 33 51 90 70 128 31 59
39 67 64 67 15 0 47 -14 71 -31 24 -18 46 -27 51 -22 12 12 -177 386 -199 395
-9 4 -42 6 -72 5 -30 -1 -116 -3 -190 -4z"/>
<path d="M9180 5613 c-44 -16 -94 -61 -111 -101 -22 -50 -23 -72 -8 -125 15
-56 65 -105 128 -128 53 -18 54 -18 110 1 58 21 78 39 111 102 61 115 -32 259
-164 257 -28 0 -58 -3 -66 -6z"/>
<path d="M13455 5226 c-17 -7 -43 -31 -58 -53 l-27 -39 0 -335 c0 -199 -4
-349 -10 -371 -13 -45 -51 -93 -94 -116 -29 -16 -139 -17 -1636 -17 -1539 0
-1607 1 -1642 18 -20 11 -49 35 -65 55 -25 33 -27 46 -33 146 -5 120 -17 153
-68 191 -39 29 -159 29 -199 -1 -60 -44 -63 -62 -63 -356 0 -274 -10 -400 -37
-451 -25 -49 -92 -114 -146 -143 -44 -23 -65 -27 -132 -27 -95 -1 -154 24
-224 94 -71 71 -85 109 -85 219 0 94 0 96 44 170 36 61 44 84 44 122 -1 64
-39 120 -100 147 -57 26 -77 26 -131 2 -97 -44 -203 -275 -203 -441 0 -180
119 -416 259 -513 220 -152 470 -167 716 -44 131 65 272 253 304 404 19 89 32
97 123 83 53 -8 508 -10 1678 -8 1722 4 1640 1 1737 51 132 69 207 158 258
308 25 74 25 75 25 440 l0 366 -35 45 c-49 65 -127 86 -200 54z"/>
<path d="M14264 5226 c-17 -8 -45 -33 -63 -57 -30 -40 -32 -49 -29 -102 3 -46
10 -63 32 -86 33 -35 85 -58 149 -66 33 -4 57 -15 76 -33 56 -53 59 -75 60
-463 2 -319 0 -363 -18 -436 -58 -245 -232 -393 -461 -393 -30 0 -46 -8 -78
-39 -88 -85 -72 -214 33 -268 47 -25 230 -13 320 22 101 38 201 104 277 182
62 63 128 145 128 159 0 3 8 18 18 32 25 36 48 101 68 192 24 110 27 113 82
105 26 -4 1141 -9 2479 -11 l2432 -4 6 32 c4 18 5 177 3 353 -4 315 -5 321
-30 390 -26 70 -72 157 -120 226 -81 118 -276 237 -436 265 -115 20 -759 19
-866 -1 -89 -17 -231 -84 -301 -141 -140 -115 -256 -376 -228 -514 8 -42 71
-106 117 -118 88 -25 189 28 201 104 20 126 37 181 68 221 42 54 84 88 144
116 46 21 61 22 393 25 398 4 450 -1 531 -55 106 -69 155 -131 188 -237 17
-56 21 -90 19 -188 -2 -107 -5 -121 -22 -134 -17 -12 -351 -14 -2231 -14
-1483 0 -2225 4 -2255 11 -54 12 -104 48 -128 92 -14 27 -17 62 -18 234 -2
253 -12 310 -70 404 -28 44 -125 129 -183 159 -98 49 -220 65 -287 36z"/>
<path d="M20323 4431 c-35 -9 -94 -54 -105 -80 -4 -9 -7 -38 -7 -65 -1 -60 33
-117 82 -138 27 -11 532 -12 2982 -10 2802 3 2952 4 2985 21 37 19 76 68 87
109 9 35 -34 118 -73 141 -31 18 -110 19 -2975 25 -1619 3 -2958 2 -2976 -3z"/>
<path d="M2143 4270 c-57 -26 -103 -90 -103 -144 1 -55 42 -114 100 -144 l45
-22 2945 2 c2719 3 2947 4 2975 20 59 32 79 63 83 131 3 56 1 66 -25 102 -21
28 -44 45 -79 58 -46 16 -209 17 -2974 16 -2833 0 -2926 -1 -2967 -19z"/>
<path d="M12965 3801 c-11 -5 -37 -27 -57 -49 -61 -68 -64 -172 -6 -238 42
-48 77 -64 138 -64 68 0 114 23 156 78 29 38 34 53 34 98 0 63 -24 109 -78
151 -30 23 -48 28 -102 30 -36 2 -74 -1 -85 -6z"/>
<path d="M13410 3788 c-67 -46 -91 -103 -80 -191 22 -171 245 -206 335 -53 42
72 27 164 -37 223 -53 49 -161 59 -218 21z"/>
<path d="M18678 3726 c-86 -66 -92 -205 -13 -275 92 -81 233 -54 285 54 38 78
15 175 -53 225 -36 26 -49 30 -108 30 -60 0 -70 -3 -111 -34z"/>
</g>
</svg>
